<svg aria-hidden="true" style="position: absolute; width: 0; height: 0; overflow: hidden;" version="1.1" xmlns="http://www.w3.org/2000/svg" xmlns:xlink="http://www.w3.org/1999/xlink">
<defs>
<symbol id="angle-left" viewBox="0 0 32 32">
<path d="M21.841 31.442c0.367 0.347 0.83 0.558 1.371 0.558 1.101 0 1.931-0.847 1.931-1.925 0-0.539-0.212-1.021-0.579-1.386l-13.014-12.688 13.014-12.688c0.367-0.366 0.579-0.866 0.579-1.386 0-1.078-0.83-1.925-1.931-1.925-0.541 0-0.985 0.193-1.371 0.558l-14.327 13.959c-0.425 0.404-0.657 0.924-0.657 1.483s0.232 1.040 0.657 1.463l14.327 13.978z"></path>
</symbol>
<symbol id="arrow-left" viewBox="0 0 32 32">
<path d="M29.946 13.957h-22.939l10.022-10.022c0.801-0.801 0.801-2.115 0-2.916-0.384-0.385-0.905-0.601-1.448-0.601s-1.064 0.216-1.448 0.601l-13.533 13.533c-0.801 0.801-0.801 2.095 0 2.896l13.533 13.533c0.801 0.801 2.095 0.801 2.896 0s0.801-2.095 0-2.896l-10.022-10.022h22.939c1.129 0 2.054-0.924 2.054-2.054s-0.924-2.054-2.054-2.054z"></path>
</symbol>
<symbol id="calendar" viewBox="0 0 32 32">
<path d="M27.2 3.2h-1.6v-1.6c0-0.88-0.72-1.6-1.6-1.6s-1.6 0.72-1.6 1.6v1.6h-12.8v-1.6c0-0.88-0.72-1.6-1.6-1.6s-1.6 0.72-1.6 1.6v1.6h-1.6c-1.776 0-3.184 1.44-3.184 3.2l-0.016 22.4c0 1.76 1.424 3.2 3.2 3.2h22.4c1.76 0 3.2-1.44 3.2-3.2v-22.4c0-1.76-1.44-3.2-3.2-3.2zM27.2 27.2c0 0.88-0.72 1.6-1.6 1.6h-19.2c-0.88 0-1.6-0.72-1.6-1.6v-16h22.4v16zM11.2 17.6v-3.2h-3.2v3.2h3.2zM14.4 14.4h3.2v3.2h-3.2v-3.2zM24 17.6v-3.2h-3.2v3.2h3.2z"></path>
</symbol>
<symbol id="list" viewBox="0 0 32 32">
<path d="M1.778 17.778c0.978 0 1.778-0.8 1.778-1.778s-0.8-1.778-1.778-1.778c-0.978 0-1.778 0.8-1.778 1.778s0.8 1.778 1.778 1.778z"></path>
<path d="M1.778 24.889c0.978 0 1.778-0.8 1.778-1.778s-0.8-1.778-1.778-1.778c-0.978 0-1.778 0.8-1.778 1.778s0.8 1.778 1.778 1.778z"></path>
<path d="M1.778 10.667c0.978 0 1.778-0.8 1.778-1.778s-0.8-1.778-1.778-1.778c-0.978 0-1.778 0.8-1.778 1.778s0.8 1.778 1.778 1.778z"></path>
<path d="M8.889 17.778h21.333c0.978 0 1.778-0.8 1.778-1.778s-0.8-1.778-1.778-1.778h-21.333c-0.978 0-1.778 0.8-1.778 1.778s0.8 1.778 1.778 1.778z"></path>
<path d="M8.889 24.889h21.333c0.978 0 1.778-0.8 1.778-1.778s-0.8-1.778-1.778-1.778h-21.333c-0.978 0-1.778 0.8-1.778 1.778s0.8 1.778 1.778 1.778z"></path>
<path d="M7.111 8.889c0 0.978 0.8 1.778 1.778 1.778h21.333c0.978 0 1.778-0.8 1.778-1.778s-0.8-1.778-1.778-1.778h-21.333c-0.978 0-1.778 0.8-1.778 1.778z"></path>
</symbol>
<symbol id="star" viewBox="0 0 32 32">
<path d="M6.138 30.983c0.745 0.562 1.644 0.379 2.67-0.365l7.195-5.283 7.194 5.283c1.026 0.745 1.925 0.927 2.67 0.365 0.731-0.548 0.871-1.461 0.478-2.642l-2.853-8.445 7.265-5.213c1.012-0.717 1.447-1.546 1.152-2.417s-1.11-1.293-2.361-1.279l-8.895 0.070-2.712-8.501c-0.379-1.208-1.026-1.869-1.939-1.869s-1.546 0.66-1.939 1.869l-2.712 8.501-8.895-0.070c-1.251-0.014-2.066 0.408-2.361 1.265-0.309 0.885 0.141 1.714 1.152 2.431l7.265 5.213-2.853 8.445c-0.393 1.18-0.253 2.094 0.478 2.642z"></path>
</symbol>
<symbol id="star-outline" viewBox="0 0 32 32">
<path d="M7.041 31.306c-0.4 0-0.667-0.133-0.934-0.267v0c-0.267-0.267-0.534-0.667-0.667-1.068s0-0.934 0.133-1.602l2.803-8.409-7.207-5.205c-0.534-0.4-0.934-0.801-1.068-1.201-0.133-0.534-0.133-0.934 0-1.335s0.4-0.801 0.801-0.934c0.4-0.267 0.934-0.4 1.468-0.4l8.943 0.133 2.669-8.542c0.267-0.667 0.4-1.068 0.801-1.335 0.667-0.667 1.735-0.667 2.402 0 0.267 0.267 0.534 0.801 0.801 1.335l2.669 8.542 8.943-0.133c0.534 0 1.201 0.133 1.602 0.267 0.4 0.267 0.667 0.534 0.801 0.934 0 0.534 0 0.934-0.133 1.468-0.133 0.4-0.534 0.801-1.068 1.201l-7.341 5.205 2.803 8.142 0.133 0.133v0.4c0.133 0.534 0.133 0.934 0.133 1.335-0.133 0.4-0.267 0.801-0.667 1.068s-0.801 0.4-1.201 0.267c-0.4 0-0.934-0.267-1.468-0.667l-0.133-0.133-7.074-5.205-7.207 5.339c-0.534 0.4-1.068 0.667-1.468 0.667 0 0-0.133 0-0.267 0zM4.371 13.688l7.208 5.205-2.803 8.409 7.207-5.339 7.208 5.339-2.803-8.409 7.207-5.205h-8.943l-2.669-8.542-2.669 8.542h-8.943z"></path>
</symbol>
</defs>
</svg>
